<mxfile host="Electron" modified="2023-10-02T00:53:35.405Z" agent="Mozilla/5.0 (Macintosh; Intel Mac OS X 10_15_7) AppleWebKit/537.36 (KHTML, like Gecko) draw.io/22.0.0 Chrome/114.0.5735.289 Electron/25.8.3 Safari/537.36" version="22.0.0" etag="kC0snUVEYKULniYf5c8V" type="device">
  <diagram id="8L-umWjG6m2BZqxiOJDo" name="overview">
    <mxGraphModel dx="1026" dy="743" grid="1" gridSize="10" guides="1" tooltips="1" connect="1" arrows="1" fold="1" page="1" pageScale="1" pageWidth="1169" pageHeight="827" math="0" shadow="0">
      <root>
        <mxCell id="0" />
        <mxCell id="1" parent="0" />
        <mxCell id="7L7RbLN_vcg75amxbRmX-16" style="edgeStyle=orthogonalEdgeStyle;rounded=0;orthogonalLoop=1;jettySize=auto;html=1;entryX=0;entryY=0.5;entryDx=0;entryDy=0;" edge="1" parent="1" source="7L7RbLN_vcg75amxbRmX-12" target="7L7RbLN_vcg75amxbRmX-15">
          <mxGeometry relative="1" as="geometry" />
        </mxCell>
        <mxCell id="7L7RbLN_vcg75amxbRmX-12" value="code_file_path_store&lt;br&gt;(Hash)" style="rounded=0;whiteSpace=wrap;html=1;" vertex="1" parent="1">
          <mxGeometry x="100" y="180" width="210" height="130" as="geometry" />
        </mxCell>
        <mxCell id="7L7RbLN_vcg75amxbRmX-14" style="edgeStyle=orthogonalEdgeStyle;rounded=0;orthogonalLoop=1;jettySize=auto;html=1;entryX=0.5;entryY=1;entryDx=0;entryDy=0;" edge="1" parent="1" source="7L7RbLN_vcg75amxbRmX-13" target="7L7RbLN_vcg75amxbRmX-12">
          <mxGeometry relative="1" as="geometry">
            <mxPoint x="295" y="230" as="targetPoint" />
          </mxGeometry>
        </mxCell>
        <mxCell id="7L7RbLN_vcg75amxbRmX-17" value="contert to codefile path collection" style="edgeLabel;html=1;align=center;verticalAlign=middle;resizable=0;points=[];" vertex="1" connectable="0" parent="7L7RbLN_vcg75amxbRmX-14">
          <mxGeometry x="-0.0714" y="2" relative="1" as="geometry">
            <mxPoint as="offset" />
          </mxGeometry>
        </mxCell>
        <mxCell id="7L7RbLN_vcg75amxbRmX-13" value="yaml" style="rounded=0;whiteSpace=wrap;html=1;" vertex="1" parent="1">
          <mxGeometry x="145" y="450" width="120" height="60" as="geometry" />
        </mxCell>
        <mxCell id="7L7RbLN_vcg75amxbRmX-15" value="code_file_generator" style="rounded=0;whiteSpace=wrap;html=1;" vertex="1" parent="1">
          <mxGeometry x="510" y="180" width="200" height="130" as="geometry" />
        </mxCell>
      </root>
    </mxGraphModel>
  </diagram>
</mxfile>
